<svg id="Layer_1" data-name="Layer 1" xmlns="http://www.w3.org/2000/svg" viewBox="0 0 2135.06 382.33"><defs><style>.cls-1{fill:#ff530d;}.cls-2{fill:#fff;}.cls-3{fill:#3f5765;}.cls-4,.cls-5,.cls-6{font-size:260.39px;fill:#2b3a42;font-family:MatrixExtraBold, MatrixExtraBold;}.cls-5{letter-spacing:0em;}.cls-6{letter-spacing:0em;}</style></defs><title>Board_Game_Deals_Logo</title><path class="cls-1" d="M366.09,1280H168.55c-3.31,0-4.69,2.37-3.05,5.25l98.85,174.5c1.64,2.89,4.31,2.89,5.95,0l98.85-174.5C370.79,1282.4,369.41,1280,366.09,1280Z" transform="translate(-98.09 -1157.62)"/><path class="cls-1" d="M381.19,1291.76c-1.1-3.13-3.33-3.33-5-.44L279.2,1463c-1.63,2.89-.28,4.88,3,4.42L429.52,1447a4.74,4.74,0,0,0,4-6.52Z" transform="translate(-98.09 -1157.62)"/><path class="cls-1" d="M256,1463l-97-171.68c-1.63-2.89-3.86-2.69-5,.44l-52.31,148.68a4.75,4.75,0,0,0,4,6.52L253,1467.42C256.25,1467.88,257.61,1465.89,256,1463Z" transform="translate(-98.09 -1157.62)"/><path class="cls-1" d="M170.87,1271.19h193c3.32,0,4.23-2,2-4.53l-94.57-107.18a5.21,5.21,0,0,0-8,0l-94.57,107.18C166.63,1269.15,167.55,1271.19,170.87,1271.19Z" transform="translate(-98.09 -1157.62)"/><path class="cls-1" d="M109.22,1250.31l38.84,17.22a8.84,8.84,0,0,0,9.53-2l84.87-95.16c2.21-2.48,1.66-3.15-1.22-1.5l-132.3,76C106.06,1246.51,106.19,1249,109.22,1250.31Z" transform="translate(-98.09 -1157.62)"/><path class="cls-1" d="M378,1265.48a8.84,8.84,0,0,0,9.53,2l38.84-17.22c3-1.35,3.16-3.8.28-5.45l-132.3-76c-2.88-1.65-3.43-1-1.22,1.5Z" transform="translate(-98.09 -1157.62)"/><path class="cls-1" d="M431.6,1257.57l-40.07,18a6.71,6.71,0,0,0-3.51,8.17l46.69,133.39c1.09,3.13,2,3,2-.34l.37-155.64C437.1,1257.81,434.63,1256.21,431.6,1257.57Z" transform="translate(-98.09 -1157.62)"/><path class="cls-1" d="M143.65,1276l-40.07-18c-3-1.36-5.5.25-5.49,3.56l.37,155.64c0,3.32.91,3.47,2,.34l46.69-133.39A6.71,6.71,0,0,0,143.65,1276Z" transform="translate(-98.09 -1157.62)"/><path class="cls-1" d="M257,1476.69l-136-18.49c-3.28-.44-3.62.54-.74,2.19l137.53,78.86c2.88,1.65,5.23.28,5.23-3v-52.69A7.11,7.11,0,0,0,257,1476.69Z" transform="translate(-98.09 -1157.62)"/><path class="cls-1" d="M413.43,1458.2l-136,18.49a7.11,7.11,0,0,0-6,6.84v52.69c0,3.31,2.35,4.68,5.23,3l137.53-78.86C417.05,1458.74,416.72,1457.76,413.43,1458.2Z" transform="translate(-98.09 -1157.62)"/><path class="cls-2" d="M309.31,1474.41l-.71,0c-2.28,0-10.09-.51-15-7.07-2.82-3.77-8.8-13.76-14.08-22.57-3.23-5.4-6.28-10.49-7.15-11.7a31.93,31.93,0,0,0-5-5.82,31.52,31.52,0,0,0-5,5.82c-.88,1.21-3.93,6.3-7.15,11.7-5.28,8.81-11.26,18.8-14.08,22.57-4.92,6.56-12.73,7.07-15,7.07l-.72,0-31.21.15c-.25,0-15.91-.3-25.15-.3h-2c-2.74,0-7.84,0-11.44-3.61l-.16-.15-.13-.18c-4.2-5.24-1.93-16.86-.77-21.62,4.33-17.61,29.05-60.41,30.1-62.22l.1-.15c6.92-10.81,12.22-22.68,11.4-25.53-1.54-2.3-9.91-2.3-13.08-2.3H180a54.42,54.42,0,0,1-6-.23c-.35,0-.9,0-1.6,0-14.42,0-29.83-6.72-29.83-25.55,0-25,30.25-37.17,41.63-41.76l1.72-.7c4.77-2,14.6-5.37,23.28-8.37,6.58-2.27,14-4.85,15.22-5.44l.52-.27v-1c0-.28,1.1-29,12.22-39,9.73-8.75,18.14-12.18,30-12.23h.16c12,0,20.41,3.46,30.16,12.23,11.12,10,12.22,38.73,12.22,39,0,0,0,.9,0,1l.53.27c1.18.59,8.64,3.17,15.22,5.44,8.67,3,18.5,6.39,23.28,8.37l1.71.7c11.39,4.59,41.64,16.8,41.64,41.76,0,18.83-15.41,25.55-29.84,25.55-.7,0-1.24,0-1.59,0a54.61,54.61,0,0,1-6,.23h-3.05c-3.16,0-11.53,0-13.07,2.3-.82,2.85,4.48,14.72,11.4,25.53l.09.15c1.05,1.81,25.78,44.61,30.1,62.22,1.17,4.76,3.43,16.38-.76,21.62l-.14.18-.15.15c-3.61,3.61-8.7,3.61-11.44,3.61h-2c-9.24,0-24.9.3-25.06.3h-.05Z" transform="translate(-98.09 -1157.62)"/><path class="cls-2" d="M267.41,1228h0c10.82,0,18.37,3.07,27.41,11.2s10.9,33.32,10.9,36-.3,3.33,2.73,4.85,30,10.29,38.76,13.93,40.88,15.14,40.88,38.76c0,20-19.81,21.55-25.84,21.55-1.08,0-1.72,0-1.72,0a48.34,48.34,0,0,1-5.84.24h-3c-6.73,0-14.13.27-16.55,4.31-3.64,6.06,11.5,29.68,11.5,29.68s25.44,43.9,29.68,61.17c1.69,6.86,2.42,15.14,0,18.16-2.23,2.23-5.55,2.44-8.61,2.44h-2c-9.39,0-25.13.3-25.13.3l-31.35-.15s-.21,0-.6,0c-1.93,0-8-.42-11.81-5.47-4.54-6.06-18.78-30.89-21.2-34.22s-5.83-7.6-8.25-7.86c-2.42.26-5.91,4.63-8.25,7.86s-16.66,28.16-21.2,34.22c-3.79,5-9.88,5.47-11.81,5.47-.39,0-.61,0-.61,0l-31.34.15s-15.74-.3-25.13-.3h-2c-3.06,0-6.38-.21-8.61-2.44-2.42-3-1.69-11.3,0-18.16,4.24-17.27,29.68-61.17,29.68-61.17s15.14-23.62,11.5-29.68c-2.42-4-9.82-4.31-16.55-4.31h-3a48.24,48.24,0,0,1-5.84-.24s-.64,0-1.72,0c-6,0-25.84-1.53-25.84-21.55,0-23.62,32.1-35.13,40.88-38.76s35.73-12.42,38.76-13.93,2.73-2.12,2.73-4.85,1.81-27.86,10.9-36,16.58-11.17,27.4-11.2h.15m0-8h-8.15v.59c-9,1.39-16.61,5.34-24.75,12.67-10.83,9.74-13.06,33.74-13.47,40.3-2.86,1.06-8.44,3-13.13,4.61-8.72,3-18.62,6.43-23.5,8.45l-1.68.69c-5.6,2.26-16,6.47-25.29,13.25-12.51,9.17-18.85,20-18.85,32.22,0,11.49,5.34,20.51,15,25.42,7.1,3.59,14.82,4.13,18.79,4.13.58,0,1.08,0,1.46,0,1.77.18,3.75.22,6.1.22h3a50.42,50.42,0,0,1,8.84.57c-1.15,4.35-5.63,13.44-10.53,21.1l-.1.15-.09.16c-1.06,1.83-26.06,45.1-30.52,63.27-2,8.09-3.34,19,1.52,25.07l.28.35.31.31c4.78,4.78,11.19,4.78,14.27,4.78h2c9.2,0,24.82.3,25,.3h.19l31.12-.15.79,0c2.75,0,12.18-.63,18.21-8.67,3-3.93,9-14,14.31-22.92,2.75-4.6,6.18-10.33,7-11.4s1.27-1.7,1.78-2.34c.51.64,1.1,1.41,1.78,2.34s4.2,6.8,7,11.4c5.32,8.9,11.36,19,14.31,22.92,6,8,15.46,8.67,18.21,8.67l.79,0,31.12.15h.19c.16,0,15.78-.3,25-.3h2c3.08,0,9.49,0,14.27-4.78l.31-.31.28-.35c4.85-6.07,3.5-17,1.52-25.07-4.46-18.17-29.46-61.44-30.53-63.27l-.09-.16-.09-.15c-4.9-7.66-9.38-16.74-10.53-21.1a46.56,46.56,0,0,1,8.84-.57h3c2.35,0,4.33,0,6.1-.22.38,0,.87,0,1.46,0,4,0,11.69-.54,18.79-4.13,9.7-4.9,15-13.93,15-25.42,0-12.21-6.34-23-18.85-32.22-9.26-6.78-19.69-11-25.29-13.25l-1.68-.69c-4.89-2-14.78-5.44-23.51-8.45-4.68-1.62-10.26-3.55-13.12-4.61-.41-6.56-2.64-30.56-13.47-40.3-8.14-7.33-15.71-11.28-24.76-12.67V1220Z" transform="translate(-98.09 -1157.62)"/><path class="cls-3" d="M360.53,1354.28s27.56,2.12,27.56-21.5S356,1297.65,347.21,1294s-35.73-12.42-38.76-13.93-2.73-2.12-2.73-4.85-1.82-27.86-10.9-36S278.23,1228,267.41,1228h-.15c-10.82,0-18.36,3.07-27.4,11.2s-10.9,33.32-10.9,36,.3,3.33-2.73,4.85-30,10.29-38.76,13.93-40.88,15.14-40.88,38.76,27.56,21.5,27.56,21.5c7,.91,21.8-1.52,25.43,4.54s-11.5,29.68-11.5,29.68-25.44,43.9-29.68,61.17c-1.69,6.86-2.42,15.14,0,18.16,2.72,2.73,7.08,2.43,10.6,2.43,9.39,0,25.13.3,25.13.3l31.34-.15s7.88.6,12.42-5.45,18.77-30.89,21.2-34.22,5.83-7.6,8.25-7.86c2.42.26,5.9,4.63,8.25,7.86s16.66,28.16,21.2,34.22,12.41,5.45,12.41,5.45l31.35.15s15.74-.3,25.13-.3c3.52,0,7.87.3,10.6-2.43,2.42-3,1.69-11.3,0-18.16-4.24-17.27-29.68-61.17-29.68-61.17s-15.14-23.62-11.5-29.68S353.57,1355.19,360.53,1354.28Z" transform="translate(-98.09 -1157.62)"/><text class="cls-4" transform="translate(401.82 269.51)">B</text><text class="cls-5" transform="translate(541.65 269.51) scale(0.7)">OARD</text><text class="cls-4" transform="translate(977.28 269.51)"><tspan xml:space="preserve"> G</tspan></text><text class="cls-5" transform="translate(1211.37 269.51) scale(0.7)">AME</text><text class="cls-6" transform="translate(1540.91 269.51)"><tspan xml:space="preserve"> D</tspan></text><text class="cls-4" transform="translate(1769.79 269.51) scale(0.7)">EALS</text></svg>